<?xml version='1.0' encoding='utf-8'?>
<svg xmlns="http://www.w3.org/2000/svg" enable-background="new 0 0 595.28 841.89" version="1.1" viewBox="0 0 595.28 841.89">
	<circle cx="297.26" cy="420.94" r="150" fill="#00AAA5"/>
	<path d="m297.82 270.95v299.99c82.587-0.3 149.44-67.335 149.44-149.99 0-82.657-66.858-149.69-149.44-149.99z" fill="#00A79D"/>
			<circle cx="321.55" cy="389.8" r="49.419" fill="#1C75BC"/>
			<path d="m269.84 423.85l-56.481 56.481c-3.705 3.704-2.753 10.658 2.121 15.532 4.875 4.875 11.83 5.826 15.533 2.124l56.482-56.483c24.013 15.823 56.708 13.182 77.822-7.932 24.135-24.136 24.135-63.408 0-87.544-24.137-24.135-63.408-24.135-87.544 0-21.114 21.113-23.757 53.807-7.933 77.822zm25.587-60.167c14.401-14.4 37.833-14.4 52.233 0 14.403 14.401 14.403 37.834 0 52.235-14.399 14.401-37.832 14.401-52.233 0s-14.401-37.834 0-52.235z" fill="#D1D3D4"/>
			<path d="m356.49 424.74c-19.298 19.3-50.59 19.3-69.889 0l69.889-69.889c19.299 19.3 19.299 50.59 0 69.889z" fill="#27AAE1"/>
			<path d="m347.66 415.92c14.403-14.401 14.403-37.833 0-52.235l17.656-17.655c24.135 24.136 24.135 63.408 0 87.544-21.114 21.113-53.809 23.755-77.822 7.932l-54.359 54.359c-4.876 4.875-12.78 4.875-17.655 0l79.947-79.946c14.401 14.401 37.834 14.401 52.233 1e-3z" fill="#E6E7E8"/>
		<ellipse cx="342.78" cy="388.98" rx="7.85" ry="8.428" fill="#fff"/>
</svg>