<?xml version="1.0" encoding="UTF-8" standalone="no"?>
<!-- Created with Inkscape (http://www.inkscape.org/) -->

<svg
   version="1.1"
   id="svg2"
   width="415.74799"
   height="264.56668"
   viewBox="0 0 415.74799 264.56668"
   sodipodi:docname="team-7275685.ai"
   xmlns:inkscape="http://www.inkscape.org/namespaces/inkscape"
   xmlns:sodipodi="http://sodipodi.sourceforge.net/DTD/sodipodi-0.dtd"
   xmlns="http://www.w3.org/2000/svg"
   xmlns:svg="http://www.w3.org/2000/svg">
  <defs
     id="defs6">
    <clipPath
       clipPathUnits="userSpaceOnUse"
       id="clipPath16">
      <path
         d="M 0,198.425 H 311.811 V 0 H 0 Z"
         id="path14" />
    </clipPath>
  </defs>
  <sodipodi:namedview
     id="namedview4"
     pagecolor="#ffffff"
     bordercolor="#000000"
     borderopacity="0.25"
     inkscape:showpageshadow="2"
     inkscape:pageopacity="0.0"
     inkscape:pagecheckerboard="0"
     inkscape:deskcolor="#d1d1d1" />
  <g
     id="g8"
     inkscape:groupmode="layer"
     inkscape:label="team-7275685"
     transform="matrix(1.3333333,0,0,-1.3333333,0,264.56667)">
    <g
       id="g10">
      <g
         id="g12"
         clip-path="url(#clipPath16)">
        <g
           id="g18"
           transform="translate(228.7251,134.0975)">
          <path
             d="m 0,0 c -10.156,-7.761 -24.68,-5.82 -32.442,4.336 -7.761,10.156 -5.819,24.681 4.336,32.442 10.156,7.761 24.681,5.82 32.442,-4.336 C 12.097,22.286 10.156,7.761 0,0"
             style="fill:#1a1a18;fill-opacity:1;fill-rule:nonzero;stroke:none"
             id="path20" />
        </g>
        <g
           id="g22"
           transform="translate(266.6453,81.9125)">
          <path
             d="m 0,0 c 0.939,-2.765 1.775,-5.617 2.5,-8.545 l 1.327,-5.354 -5.458,-0.796 c -1.019,-0.149 -25.249,-3.641 -50.342,-3.641 -2.167,0 -4.294,0.024 -6.384,0.064 0.771,-2.363 1.476,-4.779 2.091,-7.259 l 1.327,-5.354 -5.459,-0.797 c -1.019,-0.148 -25.249,-3.64 -50.342,-3.64 -27.525,0 -49.497,3.503 -50.418,3.652 l -5.361,0.868 1.306,5.271 c 0.616,2.484 1.321,4.903 2.094,7.268 -2.114,-0.046 -4.247,-0.073 -6.388,-0.073 -27.525,0 -49.496,3.503 -50.418,3.652 l -5.361,0.868 1.306,5.271 c 0.726,2.928 1.561,5.78 2.5,8.545 -19.272,-5.452 -30.797,-12.357 -30.797,-19.87 0,-17.623 63.368,-31.91 141.537,-31.91 78.169,0 141.538,14.287 141.538,31.91 C 30.798,-12.357 19.273,-5.452 0,0"
             style="fill:#1a1a18;fill-opacity:1;fill-rule:nonzero;stroke:none"
             id="path24" />
        </g>
        <g
           id="g26"
           transform="translate(111.1915,134.0975)">
          <path
             d="m 0,0 c -10.156,-7.761 -24.68,-5.82 -32.442,4.336 -7.761,10.156 -5.819,24.681 4.336,32.442 10.156,7.761 24.681,5.82 32.442,-4.336 C 12.097,22.286 10.156,7.761 0,0"
             style="fill:#1a1a18;fill-opacity:1;fill-rule:nonzero;stroke:none"
             id="path28" />
        </g>
        <g
           id="g30"
           transform="translate(264.2925,72.1647)">
          <path
             d="m 0,0 c -7.381,29.782 -26.81,51.049 -49.62,51.049 -13.351,0 -25.538,-7.294 -34.835,-19.308 3.598,-2.329 7.041,-5.189 10.28,-8.582 6.815,-7.137 12.37,-16.209 16.391,-26.643 2.657,-0.066 5.381,-0.104 8.164,-0.104 C -24.601,-3.588 0,0 0,0"
             style="fill:#1a1a18;fill-opacity:1;fill-rule:nonzero;stroke:none"
             id="path32" />
        </g>
        <g
           id="g34"
           transform="translate(131.9736,103.9056)">
          <path
             d="m 0,0 c -9.297,12.014 -21.484,19.308 -34.835,19.308 -22.81,0 -42.239,-21.267 -49.62,-51.049 0,0 22.18,-3.588 49.62,-3.588 2.74,0 5.473,0.045 8.171,0.121 4.02,10.427 9.573,19.493 16.384,26.626 C -7.041,-5.189 -3.598,-2.329 0,0"
             style="fill:#1a1a18;fill-opacity:1;fill-rule:nonzero;stroke:none"
             id="path36" />
        </g>
        <g
           id="g38"
           transform="translate(205.5257,55.1784)">
          <path
             d="m 0,0 c -7.381,29.782 -26.81,51.049 -49.62,51.049 -22.81,0 -42.24,-21.267 -49.62,-51.049 0,0 22.18,-3.588 49.62,-3.588 C -24.601,-3.588 0,0 0,0"
             style="fill:#1a1a18;fill-opacity:1;fill-rule:nonzero;stroke:none"
             id="path40" />
        </g>
        <g
           id="g42"
           transform="translate(169.9583,117.1113)">
          <path
             d="m 0,0 c -10.156,-7.761 -24.68,-5.82 -32.442,4.336 -7.761,10.156 -5.819,24.681 4.336,32.442 10.156,7.761 24.681,5.82 32.442,-4.336 C 12.097,22.286 10.156,7.761 0,0"
             style="fill:#1a1a18;fill-opacity:1;fill-rule:nonzero;stroke:none"
             id="path44" />
        </g>
      </g>
    </g>
  </g>
</svg>
